<?xml version="1.0" encoding="UTF-8" standalone="no"?>
<svg
   xmlns:dc="http://purl.org/dc/elements/1.1/"
   xmlns:cc="http://creativecommons.org/ns#"
   xmlns:rdf="http://www.w3.org/1999/02/22-rdf-syntax-ns#"
   xmlns:svg="http://www.w3.org/2000/svg"
   xmlns="http://www.w3.org/2000/svg"
   xmlns:sodipodi="http://sodipodi.sourceforge.net/DTD/sodipodi-0.dtd"
   xmlns:inkscape="http://www.inkscape.org/namespaces/inkscape"
   version="1.1"
   id="Capa_1"
   x="0px"
   y="0px"
   width="432.544px"
   height="432.544px"
   viewBox="0 0 432.544 432.544"
   style="enable-background:new 0 0 432.544 432.544;"
   xml:space="preserve"
   sodipodi:docname="tag.svg"
   inkscape:version="1.0.1 (3bc2e813f5, 2020-09-07)"><metadata
   id="metadata90"><rdf:RDF><cc:Work
       rdf:about=""><dc:format>image/svg+xml</dc:format><dc:type
         rdf:resource="http://purl.org/dc/dcmitype/StillImage" /></cc:Work></rdf:RDF></metadata><defs
   id="defs88" /><sodipodi:namedview
   pagecolor="#ffffff"
   bordercolor="#666666"
   borderopacity="1"
   objecttolerance="10"
   gridtolerance="10"
   guidetolerance="10"
   inkscape:pageopacity="0"
   inkscape:pageshadow="2"
   inkscape:window-width="1366"
   inkscape:window-height="705"
   id="namedview86"
   showgrid="false"
   inkscape:zoom="1.2438041"
   inkscape:cx="71.890484"
   inkscape:cy="239.67782"
   inkscape:window-x="-8"
   inkscape:window-y="-8"
   inkscape:window-maximized="1"
   inkscape:current-layer="Capa_1"
   inkscape:document-rotation="0" />
<g
   id="g53"
   transform="matrix(0.62360572,0.62807277,-0.62807277,0.62360572,234.52436,-11.077101)"
   style="fill:#373636;fill-opacity:1">
	<path
   d="M 421.985,229.833 217.847,25.981 C 210.612,18.743 200.907,12.607 188.726,7.565 176.541,2.522 165.407,0 155.318,0 H 36.547 C 26.648,0 18.083,3.619 10.85,10.848 3.617,18.081 0.002,26.646 0.002,36.545 v 118.771 c 0,10.088 2.519,21.219 7.564,33.404 5.045,12.185 11.182,21.792 18.417,28.837 L 230.118,421.98 c 7.043,7.043 15.602,10.564 25.697,10.564 9.89,0 18.558,-3.521 25.98,-10.564 L 421.981,281.51 c 7.043,-7.046 10.561,-15.604 10.561,-25.693 0,-9.898 -3.518,-18.559 -10.557,-25.984 z M 117.202,117.201 c -7.142,7.138 -15.752,10.709 -25.841,10.709 -10.085,0 -18.699,-3.571 -25.837,-10.709 -7.138,-7.139 -10.706,-15.749 -10.706,-25.837 0,-10.089 3.568,-18.702 10.706,-25.837 7.139,-7.139 15.752,-10.71 25.837,-10.71 10.089,0 18.702,3.571 25.841,10.71 7.135,7.135 10.706,15.749 10.706,25.837 0,10.088 -3.567,18.698 -10.706,25.837 z"
   id="path51"
   style="fill:#373636;fill-opacity:1" />
</g>
<g
   id="g55">
</g>
<g
   id="g57">
</g>
<g
   id="g59">
</g>
<g
   id="g61">
</g>
<g
   id="g63">
</g>
<g
   id="g65">
</g>
<g
   id="g67">
</g>
<g
   id="g69">
</g>
<g
   id="g71">
</g>
<g
   id="g73">
</g>
<g
   id="g75">
</g>
<g
   id="g77">
</g>
<g
   id="g79">
</g>
<g
   id="g81">
</g>
<g
   id="g83">
</g>
</svg>
